# xmcd
#
# Track frame offsets:
#   150
#   14482
#   28238
#   42706
#   57305
#   69510
#   82607
#   96642
#   110730
#   124561
#   138503
#   152159
#   165981
#   179932
#   198342
#   211892
#   226233
#   245475
#   261587
#
# Disc length: 3741 seconds
#
# Revision: 0
# Processed by: cddbd v1.5.2PL0 Copyright (c) Steve Scherf et al.
# Submitted via: uFREEDB ActiveX Control 1.5
#
DISCID=190e9b13
DTITLE=Jorge e Mateus - Ai ja era
DYEAR=2010
DGENRE=Sertanejo universitario
TTITLE0=Seu astral
TTITLE1=Amo noite e dia
TTITLE2=Chove, chove
TTITLE3=Tempo ao tempo
TTITLE4=Se eu chorar
TTITLE5=Esquece o medo e vem
TTITLE6=Volta pra minha vida
TTITLE7=Cilada
TTITLE8=Refem
TTITLE9=Mil anos
TTITLE10=Alguem no seu lugar
TTITLE11=Pra ter seu amor
TTITLE12=Vestigios
TTITLE13=Ai ja era
TTITLE14=Amo noite e dia-Part.John kip
TTITLE15=Espelhos-part.John Kip
TTITLE16=Pagina virada-Part.Ch e X
TTITLE17=Amo noite e dia-Remix
TTITLE18=Inventor dos amores-Remix
EXTD=
EXTT0=
EXTT1=
EXTT2=
EXTT3=
EXTT4=
EXTT5=
EXTT6=
EXTT7=
EXTT8=
EXTT9=
EXTT10=
EXTT11=
EXTT12=
EXTT13=
EXTT14=
EXTT15=
EXTT16=
EXTT17=
EXTT18=
PLAYORDER=
